<?xml version="1.0" encoding="UTF-8"?>
<svg id="Ebene_1" xmlns="http://www.w3.org/2000/svg" version="1.1" viewBox="0 0 16 16">
  <!-- Generator: Adobe Illustrator 29.2.1, SVG Export Plug-In . SVG Version: 2.1.0 Build 116)  -->
  <defs>
    <style>
      .st0 {
        fill: #f27c03;
      }

      .st1 {
        fill: #f2b03b;
      }
    </style>
  </defs>
  <path class="st1" d="M1.0490602,1.0490654c-.7320805.7322097-.7320805,1.9192259,0,2.6514356l.8264227.8264308,2.6514101-2.6514356-.8264227-.8264308c-.7322025-.732087-1.9192066-.732087-2.6514101,0M11.3118489,13.9633857c.4405966.4408226.984117.7648754,1.5814176.9428596l1.9178443.5714293c.0998544.029767.2062221.029767.3060765,0,.2835352-.0845213.4448683-.3828926.3603475-.6664305l-.5714247-1.9178619c-.1779824-.5973072-.5020328-1.1408319-.9428508-1.5814333L5.2847465,2.633355l-2.6514101,2.6514356,8.6785126,8.6785951Z"/>
  <path class="st0" d="M14.9509399,1.0490654c-.7322035-.732087-1.9192076-.732087-2.6514101,0l-.8264227.8264308,2.6514101,2.6514356.8264227-.8264308c.7320805-.7322097.7320805-1.9192259,0-2.6514356M13.3666637,5.2847906l-2.6514101-2.6514356L2.0367407,11.3119489c-.4408181.4406013-.7648684.9841261-.9428508,1.5814333l-.5714247,1.9178619c-.0845208.2835379.0768123.5819092.3603475.6664305.0998545.029767.2062222.029767.3060765,0l1.9178443-.5714293c.5973005-.1779842,1.140821-.502037,1.5814176-.9428596L13.3666637,5.2847906Z"/>
</svg>