<?xml version="1.0" encoding="UTF-8"?>
<svg id="Ebene_1" xmlns="http://www.w3.org/2000/svg" version="1.1" viewBox="0 0 16 16">
  <!-- Generator: Adobe Illustrator 29.2.1, SVG Export Plug-In . SVG Version: 2.1.0 Build 116)  -->
  <defs>
    <style>
      .st0 {
        fill: #4f5d77;
      }
    </style>
  </defs>
  <path class="st0" d="M8.5299988,15.1799927c-.1199951.1199951-.2399902.2200317-.3699951.3200073h4.9899902c.5100098,0,.9400024-.4299927.9400024-.9400024v-4.9400024l-5.5599976,5.5599976ZM13.1499939.5H1.9100037c-.5100098,0-.9400024.4299927-.9400024.9400024v13.1199951c0,.5100098.4299927.9400024.9400024.9400024h2.1699829c-.0700073-.2399902-.0700073-.5.0100098-.75l.3800049-1.2700195c.0800171-.2799683.2000122-.5599976.3599854-.8099976h-.5700073c-.2600098,0-.4799805-.2000122-.4799805-.4599609,0-.25.2199707-.460022.4799805-.460022h1.3400269l1.8800049-1.8800049h-3.2200317c-.2600098,0-.4799805-.210022-.4799805-.4699707,0-.25.2199707-.460022.4799805-.460022h4.1500244l1.8800049-1.8800049h-6.0300293c-.2600098,0-.4799805-.210022-.4799805-.460022,0-.2599487.2199707-.4699707.4799805-.4699707h6.5400391c.1199951,0,.2199707.039978.2999878.1199951l1.0899658-1.0900269c.4200439-.4299927.9900513-.6599731,1.5900269-.6599731.1099854,0,.210022.0100098.3099976.0200195V1.4400024c0-.5100098-.4299927-.9400024-.9400024-.9400024ZM7.9900208,4.25h-3.7300415c-.2600098,0-.4799805-.210022-.4799805-.460022,0-.2599487.2199707-.4599609.4799805-.4599609h3.7300415c.2599487,0,.4799805.2000122.4799805.4599609,0,.25-.2200317.460022-.4799805.460022Z"/>
  <path class="st0" d="M14.6639586,5.8660437c-.4881356-.488058-1.2794717-.488058-1.7676067,0l-.5509484.5509539,1.7676067,1.7676237.5509484-.5509539c.4880536-.4881398.4880536-1.2794839,0-1.7676237M13.6077745,8.6898604l-1.7676067-1.7676237-5.7856751,5.7857291c-.2938787.2937342-.5099122.656084-.6285672,1.0542888l-.3809498,1.2785746c-.0563472.1890252.0512082.3879394.2402317.444287.0665696.0198447.1374814.0198447.204051,0l1.2785628-.3809528c.3982003-.1186562.7605473-.3346914,1.0542783-.6285731l5.7856749-5.7857299Z"/>
</svg>