<?xml version="1.0" encoding="UTF-8"?>
<svg id="Ebene_1" xmlns="http://www.w3.org/2000/svg" version="1.1" width="16" height="16" viewBox="0 0 16 16">
  <!-- Generator: Adobe Illustrator 29.2.1, SVG Export Plug-In . SVG Version: 2.1.0 Build 116)  -->
  <defs>
    <style>
      .st0 {
        fill: #78aa40;
      }
    </style>
  </defs>
  <path class="st0" d="M7.8301894,2.519045L.705611,7.6162742c-.128814.0924164-.2053249.2411431-.205611.3996795v.0011748c.0003326.1591658.077489.3083789.2071756.4006576l7.1245793,5.0643641c.1501205.1068699.347439.1206958.5109947.0358003.1637775-.0843269.2665829-.2532255.2662575-.4374361v-2.3834017l6.3989739.0001967c.2716255.0001091.4919099-.2200019.492019-.4916274v-.0005865l-.0001967-4.4097746c.0001073-.2717346-.2200877-.4921048-.4918223-.4922139h-6.398779v-2.3839891c0-.1838958-.1036852-.3527265-.2674305-.4376319-.1640332-.0846237-.3616672-.070112-.5115812.0375617"/>
</svg>