<?xml version="1.0" encoding="UTF-8"?>
<svg id="Ebene_1" xmlns="http://www.w3.org/2000/svg" version="1.1" viewBox="0 0 16 16">
  <!-- Generator: Adobe Illustrator 29.2.1, SVG Export Plug-In . SVG Version: 2.1.0 Build 116)  -->
  <defs>
    <style>
      .st0 {
        fill: #f2b03b;
      }
    </style>
  </defs>
  <path class="st0" d="M11.75,11c-.9508066.0017009-1.7971852.6028218-2.112,1.5h-2.388c-1.2405002,0-2.25-1.0095005-2.25-2.25v-2.2687497c.6454403.4959869,1.4360039.7660961,2.25.7687497h2.388c.3148148.8971775,1.1611934,1.4982991,2.112,1.5,1.242641,0,2.25-1.007359,2.25-2.25s-1.007359-2.25-2.25-2.25c-.9508066.0017009-1.7971852.6028225-2.112,1.5h-2.388c-1.2405002,0-2.25-1.0094998-2.25-2.25v-.138c.8971775-.3148144,1.4982991-1.1611934,1.5-2.112,0-1.2426406-1.007359-2.25-2.25-2.25s-2.25,1.0073594-2.25,2.25c.0017009.9508066.6028222,1.7971855,1.5,2.112v5.388c0,2.06775,1.68225,3.75,3.75,3.75h2.388c.3148148.8971782,1.1611934,1.4982991,2.112,1.5,1.242641,0,2.25-1.007359,2.25-2.25s-1.007359-2.25-2.25-2.25M11.75,7.25c.414628-.0004141.7510858.3353727.7514992.75.0004148.4146273-.335372.751085-.75.7514992s-.7510858-.335372-.7514992-.75c-.0000007-.0005-.0000007-.0009992,0-.0014992,0-.4132497.336-.75.75-.75M4.25,2c.4146277-.000414.751085.3353723.7514992.75s-.3353723.7510854-.75.7514992c-.4146273.0004141-.751085-.3353723-.7514992-.75-.0000004-.0004996-.0000004-.0009996,0-.0014992,0-.4132501.336-.75.75-.75M11.75,14c-.4142132-.0185294-.7349796-.3693366-.7164502-.7835498.0173678-.3882623.3281879-.6990824.7164502-.7164502.4142132.0185294.7349796.3693366.7164502.7835498-.0173678.3882623-.3281879.6990824-.7164502.7164502"/>
</svg>