<?xml version="1.0" encoding="UTF-8"?>
<svg id="Ebene_1" xmlns="http://www.w3.org/2000/svg" version="1.1" width="16" height="16" viewBox="0 0 16 16">
  <!-- Generator: Adobe Illustrator 29.2.1, SVG Export Plug-In . SVG Version: 2.1.0 Build 116)  -->
  <defs>
    <style>
      .st0, .st1 {
        fill: #fff;
      }

      .st0, .st2 {
        fill-rule: evenodd;
      }

      .st1 {
        stroke-linecap: round;
      }

      .st1, .st3 {
        stroke: #fff;
        stroke-miterlimit: 2.6666667;
        stroke-width: .6544925px;
      }

      .st3 {
        fill: none;
      }

      .st2 {
        fill: #f3a333;
      }
    </style>
  </defs>
  <path class="st2" d="M6.9285714,1.5714287c-.5917338,0-1.0714286.4796949-1.0714286,1.0714286h4.2857143c0-.5917336-.4796948-1.0714286-1.0714286-1.0714286h-2.1428571ZM5.0050001,1.6985715c.3601544-.7336611,1.1062772-1.198568,1.9235713-1.1985714h2.1428571c.8175516-.0002692,1.5640184.464679,1.9242859,1.1985714.3547628.03.7085718.0657141,1.0614286.1071429,1.0692855.1235715,1.8357141,1.0428572,1.8357141,2.0921428v9.4592857c0,1.1834676-.9593895,2.1428571-2.1428571,2.1428571h-7.4999999c-1.1834672,0-2.1428571-.9593895-2.1428571-2.1428571V3.8978572c0-1.0500002.7664285-1.9685714,1.8357141-2.0928572.352381-.0409523.7064285-.0766667,1.0621428-.1071429l.0000003.0007144Z"/>
  <g>
    <path class="st1" d="M5.5026144,6.66741h4.9947712"/>
    <path class="st3" d="M9.1100878,6.66741v-.4162303c0-.5052257-.3727057-.914792-.8324618-.914792h-.5552519c-.4597561,0-.8324618.4095664-.8324618.914792v.4162303"/>
    <path class="st0" d="M5.5026144,6.66741l.8324619,5.9873141h3.3298475l.8324618-5.987314s-4.9947712,0-4.9947712-.0000001ZM8.2081158,8.3300447c0-.1263064-.0931766-.2286981-.2081157-.2286981s-.2081155.1023918-.2081155.2286981v2.6615879c0,.1263061.0931766.2286979.2081155.2286979.114939,0,.2081157-.1023918.2081157-.2286979v-2.6615879ZM6.8661871,8.1018043c.1082726-.0190521.2100994.0619552.2274374.1809359.000607.004164.0011035.0083469.0014899.0125426l.2772099,2.6611297c.0128667.1267156-.0666291.2423886-.1810606.2634603-.1083083.0188038-.2099812-.0624378-.2270929-.1814574-.0005737-.003992-.0010467-.0080001-.0014178-.0120208l-.277626-2.6611299c-.0128667-.1267158.0666291-.2423893.1810606-.2634603M9.314874,8.3652644c.0128667-.1267158-.0666288-.2423893-.1810604-.2634601-.1082726-.0190521-.2100994.0619552-.2274372.1809359-.0006068.004164-.0011035.0083469-.0014896.0125426l-.2772099,2.6611297c-.0128667.1267156.0666288.2423886.1810608.2634603.108043.019028.2096668-.0617949.2269826-.1805235.000627-.004301.001137-.008621.0015283-.0129552,0,0,.2776262-2.6611299.2776253-2.6611297Z"/>
  </g>
</svg>