<?xml version="1.0" encoding="UTF-8"?>
<svg id="Ebene_1" xmlns="http://www.w3.org/2000/svg" version="1.1" width="16" height="16" viewBox="0 0 16 16">
  <!-- Generator: Adobe Illustrator 29.2.1, SVG Export Plug-In . SVG Version: 2.1.0 Build 116)  -->
  <defs>
    <style>
      .st0 {
        fill: #4f5d77;
      }

      .st1 {
        fill: #7c8ba8;
      }
    </style>
  </defs>
  <path class="st0" d="M9.1538463,1.6538466c0-.6382211-.515625-1.1538461-1.1538463-1.1538461s-1.1538463.515625-1.1538463,1.1538461v5.1923076H1.6538466c-.6382211,0-1.1538461.515625-1.1538461,1.1538463,0,.6382217.515625,1.1538458,1.1538461,1.1538458h5.1923076v5.1923075c0,.6382217.515625,1.1538458,1.1538463,1.1538458.6382217,0,1.1538458-.515625,1.1538458-1.1538458v-5.1923075h5.1923075c.6382217,0,1.1538458-.515625,1.1538458-1.1538463s-.515625-1.1538463-1.1538458-1.1538463h-5.1923075V1.6538466Z"/>
  <path class="st1" d="M8.4612778,11.4750195l2.7185222,3.7997751c.0492887.0687008.1286096.1095066.2131624.1096592h.0006266c.0848884-.0001774.1644687-.0413275.2136841-.1104936l2.7009942-3.7997756c.0569973-.0800643.0643711-.1853008.0190935-.2725305-.0449743-.087348-.1350536-.1421776-.2332992-.142004h-1.2711476l.0001049-3.4127861c.0000582-.1448669-.1173344-.262352-.2622013-.2624101h-.0003128l-2.3518798.0001049c-.1449251-.0000572-.2624559.1173801-.2625141.2623052v3.4126821h-1.2714609c-.0980778,0-.1881208.0552988-.2334037.1426296-.0451326.0874843-.0373931.1928892.0200329.2728433"/>
</svg>