<?xml version="1.0" encoding="UTF-8"?>
<svg id="Ebene_1" xmlns="http://www.w3.org/2000/svg" version="1.1" viewBox="0 0 16 16">
  <!-- Generator: Adobe Illustrator 29.2.1, SVG Export Plug-In . SVG Version: 2.1.0 Build 116)  -->
  <defs>
    <style>
      .st0 {
        fill: #0077cf;
      }
    </style>
  </defs>
  <path class="st0" d="M7.9999997,15.4999906h-.0021796c-.1003537-.0003691-.1963477-.0201799-.2834996-.0564079-.089332-.0365971-.1720544-.091195-.2445818-.1633539l-2.2500158-2.2499981c-.2929571-.2929571-.2929571-.7675478,0-1.0605756s.7675129-.2929571,1.0605402,0l.9697314.9697486v-4.1894245H3.0605508l.9697314.9697486c.2929571.2929571.2929571.7675478,0,1.0605756s-.7675129.2929571-1.0605402,0l-2.2499981-2.2499981c-.0701946-.0698597-.1257264-.1530381-.1633358-.2446527-.0371581-.0898786-.0563226-.186173-.0564081-.2834299v-.0044299c.0000856-.0972563.0192502-.1935513.0564081-.2834293.0375674-.0916365.0931045-.1748225.1633358-.2446521l2.2499981-2.2499804c.2929568-.2929565.7675129-.2929565,1.0605402,0s.2929571.7675129,0,1.0605402l-.9697314.9697497h4.1894438V3.0605776l-.9697314.9697666c-.2929571.2929565-.7675129.2929565-1.0605402,0s-.2929571-.7675658,0-1.0605928L7.4697387.7197533c.0725274-.0721582.1551796-.1266503.2445818-.1633358.0871524-.0362284.1831464-.0560214.2834996-.0564081h.0043414c.1003532.0003692.1963472.0201797.2834996.0564081.0893314.0365976.172055.0911776.2445818.1633358l2.2499981,2.2499981c.2929571.2929568.2929571.7675655,0,1.0605928s-.767478.2929565-1.0605048,0l-.9697486-.9697669v4.1893558h4.1894266l-.9696789-.9697669c-.2929571-.2929565-.2929571-.7675129,0-1.0605402s.767478-.2929565,1.0605048,0l2.2499981,2.2499981c.0702009.0698581.1257386.1530365.1633539.2446521.0371582.0898781.056322.186173.0564079.2834293v.0044294c-.0000858.0972568-.0192497.1935513-.0564079.2834299-.0375724.0916381-.0931166.1748252-.1633539.2446527l-2.2499981,2.2499981c-.2929571.2929571-.767478.2929571-1.0605048,0s-.2929571-.7675478,0-1.0605756l.9696789-.9697486h-4.1894266v4.1894266l.9697486-.9697486c.2929571-.2929571.767478-.2929571,1.0605048,0s.2929571.7675478,0,1.0605756l-2.2499981,2.2499981c-.0725269.0721578-.1551796.1266677-.2445818.1633539-.0871524.036228-.1831464.0560216-.2834996.0564079-.0007564.0000708-.0014237.0000708-.0021796.0000708l.0000177.000015Z"/>
</svg>