<?xml version="1.0" encoding="UTF-8"?>
<svg id="Ebene_1" xmlns="http://www.w3.org/2000/svg" version="1.1" width="16" height="16" viewBox="0 0 16 16">
  <!-- Generator: Adobe Illustrator 29.2.1, SVG Export Plug-In . SVG Version: 2.1.0 Build 116)  -->
  <defs>
    <style>
      .st0 {
        fill: #bf3738;
        fill-rule: evenodd;
      }

      .st1 {
        stroke-linecap: round;
      }

      .st1, .st2 {
        fill: none;
        stroke: #bf3738;
        stroke-miterlimit: 2.6666667;
        stroke-width: 1.363327px;
      }
    </style>
  </defs>
  <path class="st1" d="M2.4616369,3.7856557h11.0767262"/>
  <path class="st2" d="M10.4618022,3.7856557v-.814383c0-.9885085-.8265366-1.789853-1.846121-1.789853h-1.2313624c-1.0195844,0-1.846121.8013446-1.846121,1.789853v.814383"/>
  <path class="st0" d="M2.4616369,3.7856557l1.846121,11.7145882h7.3844841l1.846121-11.7145882H2.4616369ZM8.4615303,7.0387137c0-.2471269-.2066344-.4474633-.4615303-.4474633s-.4615303.2003364-.4615303.4474633v5.2075776c0,.2471269.2066344.4474633.4615303.4474633s.4615303-.2003364.4615303-.4474633v-5.2075776ZM5.4855832,6.5921458c.2401121-.0372769.46593.1212198.5043797.3540136.001346.0081472.0024472.0163311.0033038.0245406l.6147586,5.2066823c.028534.2479275-.1477608.4742502-.4015317.5154779-.2401914.0367913-.4656677-.1221638-.5036156-.3550343-.001272-.0078109-.0023213-.0156526-.0031444-.0235199l-.6156812-5.2066823c-.028534-.2479283.1477608-.4742511.4015317-.5154779M10.9159485,7.1076236c.028534-.2479283-.1477608-.4742511-.4015317-.5154779-.2401121-.0372769-.46593.1212198-.5043797.3540136-.001346.0081472-.0024472.0163311-.0033038.0245406l-.6147586,5.2066823c-.028534.2479275.1477608.4742502.4015317.5154779.2396033.03723.4649705-.1209058.5033709-.3532062.0013909-.0084152.0025212-.016868.0033892-.025348l.6156821-5.2066823Z"/>
</svg>