<?xml version="1.0" encoding="UTF-8"?>
<svg id="Ebene_1" xmlns="http://www.w3.org/2000/svg" version="1.1" width="16" height="16" viewBox="0 0 16 16">
  <!-- Generator: Adobe Illustrator 29.2.1, SVG Export Plug-In . SVG Version: 2.1.0 Build 116)  -->
  <defs>
    <style>
      .st0 {
        stroke-linecap: round;
      }

      .st0, .st1 {
        fill: none;
        stroke: #4f5d77;
        stroke-miterlimit: 2.6666667;
        stroke-width: 1.363327px;
      }

      .st2 {
        fill: #4f5d77;
        fill-rule: evenodd;
      }
    </style>
  </defs>
  <path class="st0" d="M2.4616368,3.7856557h11.0767257"/>
  <path class="st1" d="M10.4618025,3.7856557v-.814383c0-.9885085-.8265362-1.789853-1.8461208-1.789853h-1.2313623c-1.0195847,0-1.8461208.8013445-1.8461208,1.789853v.814383"/>
  <path class="st2" d="M2.4616368,3.7856557l1.8461211,11.7145884h7.3844838l1.8461208-11.7145882s-11.0767257,0-11.0767257-.0000002ZM8.4615307,7.0387139c0-.2471271-.2066345-.4474635-.4615307-.4474635s-.4615302.2003365-.4615302.4474635v5.2075782c0,.2471266.2066345.447463.4615302.447463.2548962,0,.4615307-.2003365.4615307-.447463v-5.2075782ZM5.4855833,6.5921459c.2401123-.0372767.46593.1212196.5043797.3540134.0013461.0081472.0024471.0163312.003304.0245404l.6147585,5.2066817c.0285339.2479277-.1477609.4742498-.4015317.5154781-.2401915.0367908-.4656677-.1221638-.5036159-.3550339-.0012722-.0078106-.0023212-.0156527-.0031443-.0235195l-.6156812-5.2066822c-.0285339-.2479281.1477609-.4742513.4015317-.5154781M10.9159489,7.1076236c.0285339-.2479281-.1477604-.4742513-.4015312-.5154777-.2401123-.0372767-.46593.1212196-.5043793.3540134-.0013456.0081472-.0024471.0163312-.0033035.0245404l-.6147585,5.2066817c-.0285339.2479277.1477604.4742498.4015322.5154781.239603.0372295.4649706-.1209059.5033712-.3532066.0013905-.0084152.0025215-.0168676.0033894-.0253477,0,0,.6156816-5.2066822.6156797-5.2066817Z"/>
</svg>