<?xml version="1.0" encoding="UTF-8"?>
<svg id="Ebene_1" xmlns="http://www.w3.org/2000/svg" version="1.1" viewBox="0 0 16 16">
  <!-- Generator: Adobe Illustrator 29.2.1, SVG Export Plug-In . SVG Version: 2.1.0 Build 116)  -->
  <defs>
    <style>
      .st0 {
        fill: #bf3738;
      }

      .st1 {
        fill: #78aa40;
      }
    </style>
  </defs>
  <path class="st1" d="M6.6400146.5v.6799927h-2.2600098c-1.0200195,0-1.8300171.8200073-1.8300171,1.8300171v9.9799805c0,1.0100098.8099976,1.8300171,1.8300171,1.8300171h2.2600098v.6799927h1.3599854V.5h-1.3599854ZM6.6400146,12.0899658h-2.7300415v-1.3599854h2.7300415v1.3599854ZM6.6400146,9.3599854h-2.7300415v-1.3599854h2.7300415v1.3599854Z"/>
  <path class="st0" d="M13.4545455,5.466058v7.5217457c0,1.0108899-.8194882,1.8303781-1.8303781,1.8303781h-2.260531v-1.3636364h2.260531c.2577743,0,.4667417-.2089674.4667417-.4667417v-5.2028802c0-.2577743-.2089674-.4667417-.4667417-.4667417h-2.260531v-1.3636364h1.9413676c.4158225,0,.6240671-.5027471.3300362-.796778l-2.1346984-2.1346984c-.0875311-.0875311-.1367055-.2062486-.1367055-.3300362v-1.5112147l3.9542036,3.9542036c.0875311.0875311.1367055.2062486.1367055.3300362Z"/>
  <rect class="st0" x="9.3636364" y="8" width="1.3636364" height="1.3636364"/>
  <rect class="st0" x="9.3636364" y="10.7272727" width="1.3636364" height="1.3636364"/>
</svg>