<?xml version="1.0" encoding="UTF-8"?>
<svg id="Ebene_1" xmlns="http://www.w3.org/2000/svg" version="1.1" viewBox="0 0 16 16">
  <!-- Generator: Adobe Illustrator 29.2.1, SVG Export Plug-In . SVG Version: 2.1.0 Build 116)  -->
  <defs>
    <style>
      .st0 {
        fill: #8198c3;
        fill-rule: evenodd;
      }
    </style>
  </defs>
  <path class="st0" d="M15.5,5c0,.8284271-.6715722,1.5-1.5,1.5s-1.5-.6715729-1.5-1.5.6715722-1.5,1.5-1.5,1.5.6715729,1.5,1.5M15.5,11c0,.8284278-.6715722,1.5-1.5,1.5s-1.5-.6715722-1.5-1.5c0-.8284271.6715722-1.5,1.5-1.5s1.5.6715729,1.5,1.5M9.5,11c0,.8284278-.6715729,1.5-1.5,1.5s-1.5-.6715722-1.5-1.5c0-.8284271.6715729-1.5,1.5-1.5s1.5.6715729,1.5,1.5M3.5,5c0,.8284271-.6715729,1.5-1.5,1.5s-1.5-.6715729-1.5-1.5.6715729-1.5,1.5-1.5,1.5.6715729,1.5,1.5M3.5,11c0,.8284278-.6715729,1.5-1.5,1.5s-1.5-.6715722-1.5-1.5c0-.8284271.6715729-1.5,1.5-1.5s1.5.6715729,1.5,1.5M9.5,5c0,.8284271-.6715729,1.5-1.5,1.5s-1.5-.6715729-1.5-1.5.6715729-1.5,1.5-1.5,1.5.6715729,1.5,1.5"/>
</svg>