<?xml version="1.0" encoding="UTF-8"?>
<svg id="Ebene_1" xmlns="http://www.w3.org/2000/svg" version="1.1" viewBox="0 0 16 16">
  <!-- Generator: Adobe Illustrator 29.2.1, SVG Export Plug-In . SVG Version: 2.1.0 Build 116)  -->
  <defs>
    <style>
      .st0 {
        fill: #f27c03;
      }

      .st1 {
        fill: #78aa40;
      }
    </style>
  </defs>
  <path class="st1" d="M12.3325314,2.4353274h-5.0433809c-.3200173,0-.5819035.261827-.5819035.5819035s.2618862.5819035.5819035.5819035h5.0433809c.3200765,0,.5819035-.261827.5819035-.5819035s-.261827-.5819035-.5819035-.5819035ZM11.5566404,4.7630007h-2.3277325c-.3200173,0-.5819035.2618862-.5819035.5819627,0,.3200173.2618862.5819035.5819035.5819035h2.3277325c.3200765,0,.5819035-.2618862.5819035-.5819035,0-.3200765-.261827-.5819627-.5819035-.5819627ZM7.2891506,9.4184064H1.0819627c-.3200765,0-.5819627.2618862-.5819627.5819627,0,.3200173.2618862.5819035.5819627.5819035h5.6155761c.0581904-.0872559.1357972-.1745711.2134041-.2521779l.7661828-.7661828c-.1066724-.0873151-.2424697-.1455055-.3879751-.1455055ZM10.004799,7.0907331H2.6337449c-.3200765,0-.5819035.261827-.5819035.5819035s.261827.5819627.5819035.5819627h6.3526934l1.1444497-1.1445089c-.0387738-.0193573-.0775477-.0193573-.126089-.0193573ZM6.9012347,4.7630007h-3.4915987c-.3200173,0-.5819035.2618862-.5819035.5819627,0,.3200173.2618862.5819035.5819035.5819035h3.4915987c.3200173,0,.5819035-.2618862.5819035-.5819035,0-.3200765-.2618862-.5819627-.5819035-.5819627ZM4.9614773,2.4353274H1.0819627c-.3200765,0-.5819627.261827-.5819627.5819035s.2618862.5819035.5819627.5819035h3.8795146c.3200173,0,.5819035-.261827.5819035-.5819035s-.2618862-.5819035-.5819035-.5819035Z"/>
  <path class="st0" d="M15.1658471,4.769972c-.445612-.4455412-1.1680114-.4455412-1.6136228,0l-.502953.5029579,1.6136228,1.6136384.502953-.5029579c.4455372-.4456158.4455372-1.1680226,0-1.6136384M14.2016718,7.3477939l-1.6136228-1.6136384-5.28166,5.2817093c-.2682777.2681458-.4654916.5989297-.57381.9624452l-.3477636,1.1671924c-.0514386.1725584.0467472.3541444.2193041.4055832.0607705.0181159.1255048.0181159.1862752,0l1.1671817-.3477664c.3635114-.1083195.6942927-.3055349.9624356-.5738154l5.2816598-5.28171Z"/>
</svg>