<?xml version="1.0" encoding="UTF-8"?>
<svg id="Ebene_1" xmlns="http://www.w3.org/2000/svg" version="1.1" viewBox="0 0 16 16">
  <!-- Generator: Adobe Illustrator 29.2.1, SVG Export Plug-In . SVG Version: 2.1.0 Build 116)  -->
  <defs>
    <style>
      .st0 {
        fill: #4f5d77;
      }
    </style>
  </defs>
  <path class="st0" d="M7.9311794,9.9109649c1.0640957,0,1.9267156-.8626199,1.9267156-1.9267156,0-.0564252-.0025808-.1123344-.0073971-.1675553l-2.0868738,2.0868738c.0552209.0048173.1109584.0073971.1675553.0073971M14.3086077,2.0245048l-.7349039-.7342163c-.0537378-.0537024-.140826-.0537024-.1945638,0l-1.8806122,1.8811282c-1.0374452-.530191-2.2036239-.7952862-3.4985371-.7952862-3.3063814,0-5.7732657,1.7220022-7.4006526,5.1660061-.1324508.280464-.1324508.6054817,0,.8859451.6502665,1.3696883,1.4332815,2.4675145,2.3490449,3.2934798l-1.819886,1.819198c-.0537024.0537378-.0537024.140826,0,.1945638l.7343884.7343884c.0537375.0537021.1408263.0537021.1945638,0L14.3086077,2.2192409c.0537746-.053715.0538239-.1408528.0001081-.1946276-.0000357-.0000362-.0000724-.0000722-.0001081-.0001084M4.9034834,7.9842492c-.0001522-1.6721504,1.35527-3.0278194,3.0274204-3.0279716.4974343-.0000451.987218.1224714,1.4260453.356718l-.8364009.8364009c-1.0141363-.3247242-2.0994967.2341543-2.4242209,1.2482905-.1224483.3824141-.1224483.7935167,0,1.1759309l-.8364009.8364009c-.2347081-.4385385-.3571674-.9283736-.3564429-1.4257697"/>
  <path class="st0" d="M15.4006433,7.5404167c-.6055394-1.2753028-1.3262802-2.3152128-2.1622223-3.1197312l-2.4796145,2.4797861c.5977265,1.5624829-.1843633,3.3136782-1.7468462,3.9114047-.6968937.2665954-1.4676653.2665954-2.1645585,0l-2.1032167,2.1032167c.9757439.4515162,2.0610124.6772749,3.2558056.6772749,3.3063819,0,5.7732664-1.7220027,7.4006526-5.1660061.1324756-.2804582.1324756-.6054869,0-.8859451"/>
</svg>