<?xml version="1.0" encoding="UTF-8"?>
<svg id="Ebene_1" xmlns="http://www.w3.org/2000/svg" version="1.1" viewBox="0 0 16 16">
  <!-- Generator: Adobe Illustrator 29.2.1, SVG Export Plug-In . SVG Version: 2.1.0 Build 116)  -->
  <defs>
    <style>
      .st0 {
        fill: #78aa40;
      }
    </style>
  </defs>
  <path class="st0" d="M6.0044675,8c0,1.0640965.8626205,1.926717,1.926717,1.926717s1.926717-.8626205,1.926717-1.926717-.8626205-1.926717-1.926717-1.926717-1.926717.8626205-1.926717,1.926717M15.4006535,7.5561672c-1.6308281-3.4354054-4.0959945-5.1642898-7.4006577-5.1642898-3.3063841,0-5.7698291,1.7288844-7.4006577,5.1660096-.1324508.2804642-.1324508.6054821,0,.8859457,1.6308286,3.4354054,4.0959939,5.1642898,7.4006577,5.1642898,3.3063841,0,5.7698296-1.7288844,7.4006577-5.1660096.132462-.2786861.132462-.6020991,0-.8859457M7.9311845,11.0276981c-1.6721153,0-3.0276981-1.3555828-3.0276981-3.0276981s1.3555828-3.0276981,3.0276981-3.0276981,3.0276981,1.3555828,3.0276981,3.0276981-1.3555828,3.0276981-3.0276981,3.0276981"/>
</svg>