<?xml version="1.0" encoding="UTF-8"?>
<svg id="Ebene_1" xmlns="http://www.w3.org/2000/svg" version="1.1" width="16" height="16" viewBox="0 0 16 16">
  <!-- Generator: Adobe Illustrator 29.2.1, SVG Export Plug-In . SVG Version: 2.1.0 Build 116)  -->
  <defs>
    <style>
      .st0 {
        fill: #424242;
      }

      .st1 {
        fill: #f2b03b;
      }

      .st2 {
        fill: #bcbcbc;
      }

      .st3 {
        fill: #ededed;
      }
    </style>
  </defs>
  <path class="st1" d="M15.5,3.6213758v8.7199707c0,.5499878-.4400024.9899902-.9899902,1H1.4899902c-.5499878-.0100098-.9899902-.4500122-.9899902-1V3.6213758c0-.5499878.4400024-.9899902.9899902-.9899902h1.0599976l.9100342-1.1300049c.1099854-.1400146.2799683-.2200317.4499512-.2200317h2.6300049c.2200317,0,.4200439.1300049.5200195.3300171.0900269.1400146.460022.5900269.8200073,1.0200195h6.6300049c.5499878,0,.9899902.4400024.9899902.9899902Z"/>
  <path class="st0" d="M9.827001,3.440699c-1.5507184,0-2.819488,1.2687696-2.819488,2.819488v1.1277952h1.1277952v-1.1277952c0-.9304311.761262-1.6916928,1.6916928-1.6916928s1.6916928.7612617,1.6916928,1.6916928v1.1277952h1.1277952v-1.1277952c0-1.5507184-1.2687696-2.819488-2.819488-2.819488"/>
  <path class="st2" d="M13.2103866,14.718651h-6.7667712c-.6202873,0-1.1277952-.5075076-1.1277952-1.1277952v-5.0750784c0-.6202876.5075079-1.1277952,1.1277952-1.1277952h6.7667712c.6202876,0,1.1277952.5075076,1.1277952,1.1277952v5.0750784c0,.6202876-.5075076,1.1277952-1.1277952,1.1277952"/>
  <circle class="st3" cx="9.827001" cy="11.0533166" r=".8458464"/>
</svg>