<?xml version="1.0" encoding="UTF-8"?>
<svg id="Ebene_1" xmlns="http://www.w3.org/2000/svg" version="1.1" width="16" height="16" viewBox="0 0 16 16">
  <!-- Generator: Adobe Illustrator 29.2.1, SVG Export Plug-In . SVG Version: 2.1.0 Build 116)  -->
  <defs>
    <style>
      .st0 {
        fill: #fff;
      }

      .st1 {
        fill: #74b739;
      }
    </style>
  </defs>
  <path class="st1" d="M8,.5C3.9299927.5.5,3.9299927.5,8s3.4299927,7.5,7.5,7.5,7.5-3.4299927,7.5-7.5S12.0700073.5,8,.5ZM8,13.25c-1.5100098,0-2.8699951-.6500244-3.8300171-1.6700439.6700439-.9899902,1.7999878-1.6499634,3.0800171-1.6499634h1.5c1.289978,0,2.4099731.6599731,3.0800171,1.6499634-.960022,1.0200195-2.3200073,1.6700439-3.8300171,1.6700439ZM5.75,6.5c0-1.2999878.960022-2.25,2.25-2.25,1.2999878,0,2.25.9500122,2.25,2.25s-.9500122,2.25-2.25,2.25c-1.289978,0-2.25-.9500122-2.25-2.25Z"/>
  <path class="st0" d="M10.25,6.5c0,1.2999878-.9500122,2.25-2.25,2.25-1.289978,0-2.25-.9500122-2.25-2.25s.960022-2.25,2.25-2.25c1.2999878,0,2.25.9500122,2.25,2.25Z"/>
  <path class="st0" d="M11.8300171,11.5799561c-.960022,1.0200195-2.3200073,1.6700439-3.8300171,1.6700439s-2.8699951-.6500244-3.8300171-1.6700439c.6700439-.9899902,1.7999878-1.6499634,3.0800171-1.6499634h1.5c1.289978,0,2.4099731.6599731,3.0800171,1.6499634Z"/>
</svg>