<?xml version="1.0" encoding="UTF-8"?>
<svg id="Ebene_1" xmlns="http://www.w3.org/2000/svg" version="1.1" width="16" height="16" viewBox="0 0 16 16">
  <!-- Generator: Adobe Illustrator 29.2.1, SVG Export Plug-In . SVG Version: 2.1.0 Build 116)  -->
  <defs>
    <style>
      .st0 {
        fill: #2091ef;
      }
    </style>
  </defs>
  <path class="st0" d="M7.7772014,5.0668358c.1694959-.1503977.236339-.3867367.1480107-.596816-.0549068-.1265251-.1145884-.2506627-.1814322-.3700259l-.0740053-.1289123c-.0716179-.1193632-.1503973-.2363392-.2339516-.3485405-.1360743-.181432-.3748007-.2411136-.5896545-.1694957l-.6732083.2220154c-.2554372-.2100793-.5490707-.3819622-.8641894-.4989382l-.1456232-.6923065c-.0453579-.2220155-.2172412-.3986731-.4416438-.4249329-.1575596-.0214854-.3175062-.0310344-.4798402-.0310344h-.0167108c-.1623337,0-.3222806.009549-.4798402.0286472-.2244027.0262599-.3962858.2053047-.4416438.4249329l-.1456229.6946938c-.3175062.1193632-.6087523.2888589-.8641894.4989382l-.6755957-.2196282c-.2148537-.0716179-.4535801-.0119363-.5896542.1694957-.0835542.1122013-.1623339.2291773-.2363391.3485405l-.0716179.1265251c-.0668434.1193632-.126525.2435008-.1814321.3724131-.0883288.2076919-.0214854.444031.1480104.5968158l.5299726.4726783c-.0262599.1599466-.0405835.3270551-.0405835.496551s.0143235.3366044.0405835.498938l-.5299726.4726783c-.1694957.1503977-.2363391.3867367-.1480104.596816.0549071.1265251.1145887.2506627.181432.3724129l.0716179.124138c.0716179.1217506.1503977.236339.2363391.3485407.1360741.1814322.3748004.2411138.5896542.1694959l.6732084-.2220152c.2554372.2100789.5490707.3819622.8641896.498938l.1456231.6946939c.045358.2220152.217241.3986734.4416436.4249327.1599466.0190978.3222806.0286475.4870017.0286475.247082,0,.3270551-.0095489.4870017-.0286475.2244027-.02626.3962859-.2053048.4416438-.4249327l.1456232-.6946939c.3175062-.1193632.6087523-.2888591.8641894-.498938l.6732083.2220152c.2148537.0716179.4535801.0119363.5896545-.1694959.0835542-.1122017.1623337-.2267901.2339516-.3485407l.0740053-.1289121c.0668431-.1193632.1265247-.2435008.1814322-.3700259.0883291-.2076919.0214852-.4440312-.1480107-.596816l-.5299729-.4726783c.02626-.162334.0405838-.3294425.0405838-.498938s-.0143237-.3366044-.0405838-.498938l.5299729-.4726783.0047748.002387ZM3.0862279,6.0384521c0-.6328559.5130308-1.1458867,1.1458867-1.1458867s1.1458867.5130308,1.1458867,1.1458867-.5130308,1.1458867-1.1458867,1.1458867-1.1458867-.5130308-1.1458867-1.1458867M12.4610134,13.7851233c.1503973.1694959.386737.236339.596816.1480107.1265247-.0549068.2506627-.1145884.3700259-.1814322l.1289128-.0740053c.1193632-.0716179.2363397-.1503973.3485399-.2339516.1814315-.1360743.2411131-.3748007.1694952-.5896545l-.2220152-.6732087c.2100789-.2554375.3819622-.5490707.4989387-.8641898l.6946932-.1456225c.2220152-.0453579.3986734-.2172412.4249327-.4416438.0190993-.1599462.0286475-.3222806.0286475-.4870017,0-.247082-.0095496-.3270554-.0286475-.4870017-.0262593-.2244027-.2053041-.3962859-.4249327-.4416438l-.6946932-.1480107c-.1193632-.3175058-.2888583-.6087523-.4989387-.8641898l.2220152-.6732083c.0716179-.2148537.0119363-.4535801-.1694952-.5896541-.1122017-.0835542-.2291767-.162334-.3485399-.236339l-.1265247-.0716179c-.1193632-.0668435-.2435012-.1265251-.3724126-.1814322-.2076922-.0883287-.4440312-.0214852-.596816.1480103l-.472678.5299725c-.1623337-.02626-.3294421-.0405834-.498938-.0405834s-.3366044.0143237-.498938.0405834l-.472678-.5299725c-.1503973-.1694959-.386737-.236339-.596816-.1480103-.1265247.0549071-.2506627.1145887-.3724133.1814322l-.124138.0716179c-.1217506.0716179-.236339.1503977-.3485407.236339-.1814322.136074-.2411138.3748004-.1694959.5896541l.2220152.6732083c-.2100789.2554375-.3819622.5490707-.498938.8641898l-.6946939.1432358c-.2220152.0453579-.3986734.2172412-.4249327.4416438-.0190978.1599462-.0286475.3222806-.0286475.4870017,0,.247082.0095489.3270554.0286475.4870017.02626.2244027.2053048.3962859.4249327.4416438l.6946939.1456232c.1193632.3175058.2888591.6087523.498938.8641898l-.2220152.6732087c-.0716179.2148537-.0119363.4535801.1694959.5896545.1122017.0835542.2267901.1623337.3485407.2339516l.1289121.0740053c.1193632.0668431.2435012.1265247.3700259.1814322.2076922.0883291.4440312.0214852.596816-.1480107l.472678-.5299729c.1623337.02626.3294421.0405838.498938.0405838s.3366044-.0143237.498938-.0405838l.472678.5299729-.0023881.0047741ZM11.4893967,9.0941498c.6328559,0,1.1458867.5130308,1.1458867,1.1458867s-.5130308,1.1458867-1.1458867,1.1458867h0c-.6328559,0-1.1458867-.5130308-1.1458867-1.1458867s.5130308-1.1458867,1.1458867-1.1458867"/>
</svg>