<?xml version="1.0" encoding="UTF-8"?>
<svg id="Ebene_1" xmlns="http://www.w3.org/2000/svg" version="1.1" viewBox="0 0 16 16">
  <!-- Generator: Adobe Illustrator 29.2.1, SVG Export Plug-In . SVG Version: 2.1.0 Build 116)  -->
  <defs>
    <style>
      .st0 {
        fill: #3c61cf;
      }
    </style>
  </defs>
  <path class="st0" d="M14.5090961,3.3176516h-6.6330721c-.3576506-.4283131-.7252411-.8792168-.8206627-1.0163856-.0956609-.2000251-.2978559-.327179-.5195783-.3267471h-2.6259034c-.174217,0-.3388554.0786144-.4480121.2141565l-.9074096,1.1289759h-1.0633735c-.5471131.0005977-.9904867.4439711-.9910844.9910842v8.7260235c.0007964.5469724.4441121.9901263.9910844.9907233h13.0178311c.5469724-.000597.9902876-.4437509.9910845-.9907233V4.3087361c-.000597-.5470428-.4438612-.9903876-.9909039-.9910845M13.7007227,10.4010853c.0000386.0316126-.0126643.061907-.0352409.0840362-.0221147.0224649-.0523312.0350982-.0838549.0350603h-1.5865661v1.5867468c0,.0314464-.0126505.0616271-.0348797.0842175-.0224125.0221092-.0525546.0346204-.0840355.0348797h-1.1114461c-.0656629-.0001985-.1188159-.0534329-.1189151-.1190958v-1.5867468h-1.5867468c-.0315464-.0001138-.0617629-.0127202-.0840362-.0350603-.0224435-.0221891-.0350141-.052476-.0348797-.0840362v-1.1112647c.001971-.0648715.0540471-.1170269.1189158-.1190965h1.5865661v-1.5867468c0-.0656022.0531323-.1189158.1190958-.1189158l1.1114461.0001806c.0657828,0,.1190958.0529517.1190958.1189158v1.5863855h1.5867468c.0657828,0,.1190958.0531323.1190958.1190965l-.0003612,1.111444Z"/>
</svg>