<?xml version="1.0" encoding="UTF-8"?>
<svg id="Ebene_1" xmlns="http://www.w3.org/2000/svg" version="1.1" width="16" height="16" viewBox="0 0 16 16">
  <!-- Generator: Adobe Illustrator 29.2.1, SVG Export Plug-In . SVG Version: 2.1.0 Build 116)  -->
  <defs>
    <style>
      .st0 {
        fill: #fff;
      }

      .st1 {
        fill: #f3a333;
        fill-rule: evenodd;
      }
    </style>
  </defs>
  <path class="st1" d="M6.9285714,1.5714287c-.5917338,0-1.0714286.4796949-1.0714286,1.0714286h4.2857143c0-.5917336-.4796948-1.0714286-1.0714286-1.0714286h-2.1428571ZM5.0050001,1.6985715c.3601544-.7336611,1.1062772-1.198568,1.9235713-1.1985714h2.1428571c.8175516-.0002692,1.5640184.464679,1.9242859,1.1985714.3547628.03.7085718.0657141,1.0614286.1071429,1.0692855.1235715,1.8357141,1.0428572,1.8357141,2.0921428v9.4592857c0,1.1834676-.9593895,2.1428571-2.1428571,2.1428571h-7.4999999c-1.1834672,0-2.1428571-.9593895-2.1428571-2.1428571V3.8978572c0-1.0500002.7664285-1.9685714,1.8357141-2.0928572.352381-.0409523.7064285-.0766667,1.0621428-.1071429l.0000003.0007144Z"/>
  <path class="st0" d="M8.0905655,12.0576301l3.7997753-2.7185224c.0687008-.0492887.1095066-.1286097.1096592-.2131625v-.0006266c-.0001774-.0848882-.0413275-.1644689-.1104937-.2136841l-3.799776-2.7009945c-.0800641-.0569972-.185301-.0643712-.2725304-.0190933-.0873479.0449743-.1421773.1350535-.1420039.2332993v1.2711477l-3.4127861-.0001048c-.144867-.000058-.262352.1173345-.26241.2622015v.0003128l.0001048,2.35188c-.0000575.1449252.1173803.262456.2623052.262514h3.4126823v1.2714609c0,.0980778.0552989.1881208.1426295.2334037.0874842.0451327.1928892.0373931.2728434-.0200329"/>
</svg>