<?xml version="1.0" encoding="UTF-8"?>
<svg id="Ebene_1" xmlns="http://www.w3.org/2000/svg" version="1.1" width="16" height="16" viewBox="0 0 16 16">
  <!-- Generator: Adobe Illustrator 29.2.1, SVG Export Plug-In . SVG Version: 2.1.0 Build 116)  -->
  <defs>
    <style>
      .st0 {
        fill: #4f5d77;
      }

      .st1 {
        fill: #78aa40;
      }
    </style>
  </defs>
  <path class="st0" d="M13.9699707,4.0999756l-1.3999634-1.3999634-.7399902-.7300415-1.2900391-1.289978c-.1300049-.1300049-.2999878-.2000122-.4799805-.2000122H3.8900146C2.75.4799805,1.8300171,1.4000244,1.8300171,2.5300293v10.9399414c0,1.1300049.9199829,2.0500488,2.0599976,2.0500488h8.2199707c1.1400146,0,2.0599976-.9200439,2.0599976-2.0500488V4.5800171c0-.1799927-.0700073-.3500366-.2000122-.4800415ZM12.7999878,13.4699707c0,.3700562-.3099976.6800537-.6900024.6800537H3.8900146c-.3800049,0-.6900024-.3099976-.6900024-.6800537V2.5300293c0-.3700562.3099976-.6800537.6900024-.6800537h4.7999878v2.0500488c0,1.1300049.9199829,2.0499878,2.0499878,2.0499878h2.0599976v7.5199585Z"/>
  <path class="st1" d="M7.9094348,6.7406898l-3.7997758,2.7185227c-.0687008.0492889-.1095064.1286095-.109659.2131622v.0006264c.0001772.0848885.0413277.1644692.1104937.2136841l3.7997758,2.7009942c.0800644.0569977.1853008.0643707.2725308.0190933.0873482-.0449745.1421776-.1350533.1420036-.2332993v-1.2711479l3.4127862.0001045c.1448669.000058.262352-.117334.26241-.2622009v-.0003128l-.0001045-2.3518796c.0000572-.1449249-.1173805-.2624561-.2623055-.2625141h-3.4126824v-1.2714611c0-.0980778-.0552986-.188121-.14263-.2334038-.0874847-.0451324-.192889-.0373932-.2728436.0200329"/>
</svg>