<?xml version="1.0" encoding="UTF-8"?>
<svg id="Ebene_1" xmlns="http://www.w3.org/2000/svg" version="1.1" width="16" height="16" viewBox="0 0 16 16">
  <!-- Generator: Adobe Illustrator 29.2.1, SVG Export Plug-In . SVG Version: 2.1.0 Build 116)  -->
  <defs>
    <style>
      .st0 {
        fill: #4f5d77;
      }
    </style>
  </defs>
  <path class="st0" d="M13.9699707,4.0999756l-1.3999634-1.3999634-.7399902-.7300415-1.2900391-1.289978c-.1300049-.1300049-.2999878-.2000122-.4799805-.2000122H3.8900146c-1.1400146,0-2.0599976.9200439-2.0599976,2.0500488v10.9399414c0,1.1300049.9199829,2.0500488,2.0599976,2.0500488h8.2199707c1.1400146,0,2.0599976-.9200439,2.0599976-2.0500488V4.5800171c0-.1799927-.0700073-.3500366-.2000122-.4800415ZM12.7999878,13.4699707c0,.3700562-.3099976.6800537-.6900024.6800537H3.8900146c-.3800049,0-.6900024-.3099976-.6900024-.6800537V2.5300293c0-.3700562.3099976-.6800537.6900024-.6800537h4.7999878v2.0500488c0,1.1300049.9199829,2.0499878,2.0499878,2.0499878h2.0599976v7.5199585Z"/>
  <path class="st0" d="M11.7071676,5.3073926c-.3905087-.3904462-1.0235777-.3904462-1.4140854,0l-.4407587.440763,1.4140854,1.4140987.4407587-.440763c.3904428-.390512.3904428-1.0235872,0-1.4140992v.0000005ZM10.8622208,7.5664458l-1.4140854-1.4140992-4.62854,4.628583c-.2351031.2349873-.4079299.5248671-.5028539.8434315l-.30476,1.0228596c-.0450778.1512203.0409665.3103514.1921854.3554296.0532556.0158758.1099854.0158758.1632409,0l1.02285-.3047619c.3185601-.0949249.6084375-.2677526.8434229-.5028582,0,0,4.62854-4.6285839,4.62854-4.6285844Z"/>
</svg>