<?xml version="1.0" encoding="UTF-8"?>
<svg id="Ebene_1" xmlns="http://www.w3.org/2000/svg" version="1.1" width="16" height="16" viewBox="0 0 16 16">
  <!-- Generator: Adobe Illustrator 29.2.1, SVG Export Plug-In . SVG Version: 2.1.0 Build 116)  -->
  <defs>
    <style>
      .st0 {
        fill: #4f5d77;
      }

      .st1 {
        fill: #7c8ba8;
      }
    </style>
  </defs>
  <path class="st0" d="M13.3734474,3.9214966l-1.3999634-1.3999634-.7399902-.7300415-1.2900391-1.289978c-.1300049-.1300049-.2999878-.2000122-.4799805-.2000122H3.2934918c-1.1400146,0-2.0599977.9200439-2.0599977,2.0500488v10.9399412c0,1.1300049.919983,2.0500488,2.0599977,2.0500488h8.2199702c1.1400146,0,2.0599976-.9200439,2.0599976-2.0500488V4.4015384c0-.1799927-.0700073-.3500366-.2000122-.4800417ZM12.2034645,13.2914915c0,.3700562-.3099976.6800537-.6900024.6800537H3.2934918c-.3800049,0-.6900024-.3099976-.6900024-.6800537V2.3515503c0-.3700562.3099976-.6800537.6900024-.6800537h4.7999873v2.0500488c0,1.1300046.9199829,2.0499876,2.0499878,2.0499876h2.0599976v7.5199585Z"/>
  <path class="st0" d="M11.1106453,5.1289134c-.3905087-.3904462-1.0235777-.3904462-1.4140854,0l-.4407587.440763,1.4140854,1.4140987.4407587-.440763c.3904428-.390512.3904428-1.0235872,0-1.4140992v.0000005ZM10.2656984,7.3879671l-1.4140854-1.4140987-4.62854,4.628583c-.2351029.2349873-.4079299.5248671-.5028539.8434315l-.3047597,1.0228596c-.0450778.1512203.0409665.3103514.1921854.3554296.0532558.0158758.1099851.0158758.1632409,0l1.0228503-.3047619c.3185601-.0949249.608438-.2677526.8434229-.5028582,0,0,4.6285405-4.6285839,4.6285396-4.6285849Z"/>
  <g>
    <path class="st1" d="M10.7517061,13.2589951c.5644388,0,1.022006-.4575672,1.022006-1.022006,0-.0299301-.0013685-.0595865-.0039234-.0888777l-1.1069603,1.1069603c.0292912.0025549.058857.0039234.0888777.0039234M14.1345453,9.0757065l-.389822-.3894567c-.0285044-.0284863-.0746994-.0284863-.1032047,0l-.997551.9978247c-.5503016-.2812338-1.168889-.4218512-1.8557615-.4218512-1.7538347,0-3.0623674.9134178-3.9255972,2.7402525-.0702572.1487694-.0702572.3211718,0,.4699402.3449268.7265368.7602692,1.3088665,1.246026,1.7469912l-.9653392.9649744c-.0284858.0285044-.0284858.0746994,0,.1032047l.3895483.3895483c.0285044.0284863.0746999.0284863.1032043,0l6.498497-6.4981318c.0285244-.0284929.0285501-.0747137.0000572-.1032381l-.0000572-.0000572M9.1456966,12.23699c-.0000811-.8869743.7188883-1.6060753,1.6058626-1.6061554.2638588-.0000238.5236597.0649633.7564306.1892176l-.4436598.4436598c-.5379381-.1722469-1.113656.1242046-1.285902.6621428-.0649519.2028475-.0649519.4209127,0,.6237602l-.4436598.4436598c-.1244984-.2326183-.189456-.4924459-.1890717-.7562847"/>
    <path class="st1" d="M14.7138033,12.0015631c-.3212023-.6764708-.7035112-1.2280798-1.1469278-1.6548281l-1.3152847,1.3153763c.3170576.8288021-.0977936,1.7577057-.9265957,2.0747633-.3696594.1414127-.7785072.1414127-1.1481667,0l-1.1156292,1.1156282c.5175724.239502,1.0932426.3592529,1.7270069.3592529,1.7538357,0,3.0623674-.9134178,3.9255972-2.7402534.0702705-.1487665.0702705-.3211737,0-.4699402"/>
  </g>
</svg>