<?xml version="1.0" encoding="UTF-8"?>
<svg id="Ebene_1" xmlns="http://www.w3.org/2000/svg" version="1.1" width="16" height="16" viewBox="0 0 16 16">
  <!-- Generator: Adobe Illustrator 29.2.1, SVG Export Plug-In . SVG Version: 2.1.0 Build 116)  -->
  <defs>
    <style>
      .st0 {
        fill: #f27c03;
      }

      .st1 {
        fill: #4f5d77;
      }

      .st2 {
        fill: #7c8ba8;
      }
    </style>
  </defs>
  <path class="st1" d="M13.3734478,3.9214967l-1.3999634-1.3999634-.7399902-.7300415-1.2900391-1.289978c-.1300049-.1300049-.2999878-.2000122-.4799805-.2000122H3.2934918C2.1534771.3015016,1.2334942,1.2215455,1.2334942,2.3515504v10.9399414c0,1.1300049.9199829,2.0500488,2.0599976,2.0500488h8.2199707c1.1400146,0,2.0599976-.9200439,2.0599976-2.0500488V4.4015382c0-.1799927-.0700073-.3500366-.2000122-.4800415ZM12.2034649,13.2914918c0,.3700562-.3099976.6800537-.6900024.6800537H3.2934918c-.3800049,0-.6900024-.3099976-.6900024-.6800537V2.3515504c0-.3700562.3099976-.6800537.6900024-.6800537h4.7999878v2.0500488c0,1.1300049.9199829,2.0499878,2.0499878,2.0499878h2.0599976v7.5199585Z"/>
  <path class="st0" d="M11.1106453,5.1289136c-.3905085-.3904464-1.0235773-.3904464-1.4140854,0l-.4407588.4407631,1.4140854,1.414099.4407588-.4407631c.3904429-.3905118.3904429-1.0235871,0-1.414099h0ZM10.265698,7.387967l-1.4140854-1.414099-4.62854,4.6285833c-.235103.2349874-.4079298.5248672-.5028538.8434311l-.3047598,1.0228597c-.0450778.1512202.0409665.3103516.1921853.3554296.0532557.0158758.1099852.0158758.1632408,0l1.0228503-.3047623c.3185603-.0949249.6084378-.2677531.8434227-.5028585l4.6285399-4.6285839Z"/>
  <g>
    <path class="st2" d="M10.7517058,13.2589955c.5644384,0,1.0220057-.4575673,1.0220057-1.0220059,0-.0299301-.0013689-.0595865-.0039235-.0888779l-1.1069601,1.1069599c.0292914.0025551.0588568.0039235.0888779.0039235M14.1345449,9.0757065l-.3898222-.3894572c-.0285046-.0284858-.0746998-.0284858-.1032043,0l-.9975508.9978244c-.5503017-.2812342-1.1688888-.4218511-1.8557618-.4218511-1.7538348,0-3.0623675.9134177-3.9255974,2.740253-.0702571.1487692-.0702571.3211713,0,.46994.344927.7265365.7602689,1.3088666,1.2460259,1.7469914l-.9653392.9649741c-.0284858.0285046-.0284858.0746998,0,.1032043l.3895485.3895485c.0285045.0284858.0746998.0284858.1032043,0l6.4984971-6.4981318c.0285243-.0284925.0285501-.0747138.0000572-.1032381-.0000187-.0000192-.0000384-.0000383-.0000572-.0000575M9.1456965,12.2369895c-.0000807-.8869745.7188885-1.6060748,1.6058628-1.6061552.2638589-.000024.5236592.0649636.7564306.1892173l-.44366.44366c-.5379378-.1722465-1.1136558.1242046-1.2859023.6621425-.0649515.2028476-.0649515.4209125,0,.6237598l-.44366.44366c-.1244985-.2326181-.1894556-.4924458-.1890714-.7562844"/>
    <path class="st2" d="M14.7138035,12.0015633c-.3212019-.6764709-.7035114-1.22808-1.1469281-1.6548281l-1.315285,1.3153761c.3170578.8288024-.0977936,1.7577052-.926596,2.074763-.3696599.1414129-.7785074.1414129-1.148167,0l-1.1156289,1.1156287c.5175729.2395019,1.0932423.3592532,1.7270074.3592532,1.7538353,0,3.0623675-.9134182,3.9255972-2.740253.0702704-.1487662.0702704-.3211741,0-.4699403"/>
  </g>
</svg>