<?xml version="1.0" encoding="UTF-8"?>
<svg id="Ebene_1" xmlns="http://www.w3.org/2000/svg" version="1.1" width="16" height="16" viewBox="0 0 16 16">
  <!-- Generator: Adobe Illustrator 29.2.1, SVG Export Plug-In . SVG Version: 2.1.0 Build 116)  -->
  <defs>
    <style>
      .st0 {
        fill: #f27c03;
      }

      .st1 {
        fill: #4f5d77;
      }
    </style>
  </defs>
  <path class="st1" d="M13.9699707,4.0999756l-1.3999634-1.3999634-.7399902-.7300415-1.2900391-1.289978c-.1300049-.1300049-.2999878-.2000122-.4799805-.2000122H3.8900146C2.75.4799805,1.8300171,1.4000244,1.8300171,2.5300293v10.9399414c0,1.1300049.9199829,2.0500488,2.0599976,2.0500488h8.2199707c1.1400146,0,2.0599976-.9200439,2.0599976-2.0500488V4.5800171c0-.1799927-.0700073-.3500366-.2000122-.4800415ZM12.7999878,13.4699707c0,.3700562-.3099976.6800537-.6900024.6800537H3.8900146c-.3800049,0-.6900024-.3099976-.6900024-.6800537V2.5300293c0-.3700562.3099976-.6800537.6900024-.6800537h4.7999878v2.0500488c0,1.1300049.9199829,2.0499878,2.0499878,2.0499878h2.0599976v7.5199585Z"/>
  <path class="st0" d="M11.7071681,5.3073925c-.3905085-.3904464-1.0235773-.3904464-1.4140854,0l-.4407588.4407631,1.4140854,1.414099.4407588-.4407631c.3904429-.3905118.3904429-1.0235871,0-1.414099h0ZM10.8622208,7.5664459l-1.4140854-1.414099-4.62854,4.6285833c-.235103.2349874-.4079298.5248672-.5028538.8434311l-.3047598,1.0228597c-.0450778.1512202.0409665.3103516.1921853.3554296.0532557.0158758.1099852.0158758.1632408,0l1.0228503-.3047623c.3185603-.0949249.6084378-.2677531.8434227-.5028585l4.6285399-4.6285839Z"/>
</svg>