<?xml version="1.0" encoding="UTF-8"?>
<svg id="Ebene_1" xmlns="http://www.w3.org/2000/svg" version="1.1" width="16" height="16" viewBox="0 0 16 16">
  <!-- Generator: Adobe Illustrator 29.2.1, SVG Export Plug-In . SVG Version: 2.1.0 Build 116)  -->
  <defs>
    <style>
      .st0 {
        fill: #eb9800;
      }
    </style>
  </defs>
  <path class="st0" d="M4.590909,13.4539456c-.0272862,1.1296728-.9651873,2.0233346-2.0948606,1.9960487-1.0912824-.0263597-1.9696894-.9047663-1.9960483-1.9960487.0272863-1.1296728.9651873-2.0233346,2.0948606-1.9960487,1.0912825.0263597,1.9696894.9047663,1.9960483,1.9960487M10.0448579,14.763895c.0107371.1914812-.0530898.3728227-.1813409.5112147-.1276543.1491291-.3089953.2236936-.5004771.2236936h-1.438201c-.3502881-.0003356-.6419416-.2689164-.6710809-.6179905-.3119227-3.2507414-2.8850255-5.8238439-6.1357671-6.1357666-.3490742-.0291393-.6176551-.3207927-.6179909-.6710809v-1.4382016c0-.1914818.0745645-.3728227.2236936-.5004771.1169172-.1169173.2875209-.1813409.4581245-.1813409h.0530899c2.2747436.1828917,4.4092122,1.1727992,6.0182531,2.7910993,1.6183001,1.6090415,2.6082082,3.7435095,2.7910999,6.0182537l.0005968.0005962ZM15.4988065,14.7853691c.0107371.1813415-.0530904.3620856-.1914812.5004776-.1276549.138392-.2982582.2129565-.4897394.2129565h-1.5235021c-.3607556.0016099-.6599854-.2787705-.681818-.6388685C12.2609173,8.6710779,7.3289204,3.739081,1.1400635,3.3769954c-.3567779-.0198435-.636586-.3137591-.6388704-.6710812v-1.5235027c0-.1914818.0745645-.3620853.2129563-.48974.1276545-.1276545.2982582-.1914818.4688619-.1914818h.0322119c3.725514.1906697,7.2462253,1.7630163,9.8747318,4.4100453,2.6465497,2.6288381,4.2188084,6.1493543,4.410045,9.8747324l-.0011935-.0005985Z"/>
</svg>