<?xml version="1.0" encoding="UTF-8"?>
<svg id="Ebene_1" xmlns="http://www.w3.org/2000/svg" version="1.1" viewBox="0 0 16 16">
  <!-- Generator: Adobe Illustrator 29.2.1, SVG Export Plug-In . SVG Version: 2.1.0 Build 116)  -->
  <defs>
    <style>
      .st0 {
        fill: #00adff;
      }
    </style>
  </defs>
  <path class="st0" d="M8,.5C3.8578643.5.5,3.8578643.5,8s3.3578643,7.5,7.5,7.5,7.5-3.3578649,7.5-7.5c-.0039757-4.1404878-3.3595122-7.4960246-7.5-7.5M7.8557692,3.9615385c.4779383,0,.8653846.3874458.8653846.8653846s-.3874463.8653846-.8653846.8653846c-.4779388,0-.8653846-.3874458-.8653846-.8653846s.3874458-.8653846.8653846-.8653846M8.5769231,12.0384615h-.5769231c-.3186261,0-.5769231-.2582976-.5769231-.5769231v-3.4615385c-.3186261,0-.5769231-.258297-.5769231-.5769231s.258297-.5769231.5769231-.5769231h.5769231c.3186255,0,.5769231.258297.5769231.5769231v3.4615385c.3186255,0,.5769231.2582976.5769231.5769231s-.2582976.5769231-.5769231.5769231"/>
</svg>