<?xml version="1.0" encoding="UTF-8"?>
<svg id="Ebene_1" xmlns="http://www.w3.org/2000/svg" version="1.1" width="16" height="16" viewBox="0 0 16 16">
  <!-- Generator: Adobe Illustrator 29.2.1, SVG Export Plug-In . SVG Version: 2.1.0 Build 116)  -->
  <defs>
    <style>
      .st0 {
        fill: #edad3b;
        fill-rule: evenodd;
      }
    </style>
  </defs>
  <path class="st0" d="M7.9996817,12.7548948c-2.3438498,0-4.2864421-1.6973808-4.6781454-3.9284954.602522-.0528641,1.1528173-.1821574,1.6113968-.3681367l-1.8107512-1.8113881c-.2231154-.2245978-.5860587-.2257998-.8106568-.0026848-.0008978.0008923-.0017925.001787-.0026844.0026848l-1.8088406,1.8094759c.4267335.1738784.9362662.2948915,1.4903828.354125.3961614,2.9680269,2.9323598,5.2596492,6.0092996,5.2596492,1.61067.0020312,3.1556784-.638207,4.2928108-1.778905l-.9298963-.9298963c-.8907232.8937335-2.101113,1.3953109-3.3629152,1.3935713M14.0096172,7.1895258c-.3967979-2.9680269-2.9323598-5.2596498-6.0092996-5.2596498-1.6105783-.0021997-3.1555739.6378043-4.2928114,1.7782684l.9298969.9298969c.8907238-.8937335,2.1011124-1.3953115,3.3629152-1.3935713,2.3438498,0,4.2864421,1.6973802,4.6781451,3.928496-.6025217.0528641-1.152817.182158-1.6113971.3675001l1.8107515,1.8101137c.2231151.2245984.5860584.2257998.8106568.0026848.0008978-.0008917.0017931-.001787.0026848-.0026848l1.8088406-1.8088406c-.4267335-.1732413-.9362656-.294255-1.4903828-.3534884v.001275Z"/>
</svg>